<svg id="Layer_1" enable-background="new 0 0 512 512" height="512" viewBox="0 0 512 512" width="512" xmlns="http://www.w3.org/2000/svg" xmlns:xlink="http://www.w3.org/1999/xlink"><linearGradient id="SVGID_1_" gradientUnits="userSpaceOnUse" x1="0" x2="512" y1="256" y2="256"><stop offset="0" stop-color="#80d8ff"/><stop offset="1" stop-color="#ea80fc"/></linearGradient><path d="m437.02 74.98c-48.353-48.351-112.64-74.98-181.02-74.98s-132.667 26.629-181.02 74.98c-48.351 48.353-74.98 112.64-74.98 181.02s26.629 132.667 74.98 181.02c48.353 48.351 112.64 74.98 181.02 74.98s132.667-26.629 181.02-74.98c48.351-48.353 74.98-112.64 74.98-181.02s-26.629-132.667-74.98-181.02zm-181.02 397.02c-119.103 0-216-96.897-216-216s96.897-216 216-216 216 96.897 216 216-96.897 216-216 216zm134.723-231.523-158-100.359c-6.158-3.912-13.959-4.16-20.354-.646s-10.369 10.232-10.369 17.528v79h-78c-11.046 0-20 8.954-20 20s8.954 20 20 20h78v81c0 7.285 3.961 13.994 10.34 17.513 3.013 1.661 6.338 2.487 9.659 2.487 3.712 0 7.417-1.032 10.669-3.083l158-99.641c5.799-3.657 9.32-10.029 9.332-16.885.011-6.855-3.49-13.239-9.277-16.914zm-148.723 80.265v-127.345l100.603 63.901z" fill="url(#SVGID_1_)"/></svg>